# xmcd
#
# Track frame offsets: 
#        150
#        23903
#        47410
#        68294
#        94347
#        130862
#        158048
#        187845
#        207415
#        234172
#        256801
#        283293
#        300716
#
# Disc length: 4196 seconds
#
# Revision: 0
# Processed by: cddbd v1.5.2PL0 Copyright (c) Steve Scherf et al.
# Submitted via: ExactAudioCopy v0.99pb4
#
DISCID=a510620d
DTITLE=Tom Waits - at the civic theatre
DYEAR=2006
DGENRE=Blues
TTITLE0=Make It Rain
TTITLE1=Shore Leave
TTITLE2=Falling Down
TTITLE3=Tango Until They Are Sore
TTITLE4=Tom Traubert's Blues
TTITLE5=Eyeball Kid
TTITLE6=Murder In The Red Bank
TTITLE7=Trampled Rose
TTITLE8=Bottom Of The World
TTITLE9=Til The Money Runs Out
TTITLE10=Get Behind The Mule
TTITLE11=Lie To Me (David Letterman Show, Nov. 29, 2006)
TTITLE12=Day After Tomorrow (Daily Show, Nov. 28, 2006)
EXTD=
EXTT0=
EXTT1=
EXTT2=
EXTT3=
EXTT4=
EXTT5=
EXTT6=
EXTT7=
EXTT8=
EXTT9=
EXTT10=
EXTT11=
EXTT12=
PLAYORDER=
